<svg xmlns="http://www.w3.org/2000/svg" width="11" height="25" viewBox="0 0 11 25">
  <g fill="none" fill-rule="evenodd">
    <path fill="#FF2C55" d="M6.7491,4.4968 C6.7411,4.4968 6.7331,4.5008 6.7261,4.5008 L4.2741,4.5008 C4.2671,4.5008 4.2591,4.4968 4.2511,4.4968 L0.5001,19.5008 L5.5001,24.5008 L10.5001,19.5008 L6.7491,4.4968 Z"/>
    <path fill="#FF9500" d="M2.5948,1.948 L3.4818,3.948 C3.6318,4.287 3.9388,4.501 4.2748,4.501 L6.7258,4.501 C7.0618,4.501 7.3678,4.287 7.5188,3.948 L8.4058,1.948 C8.6998,1.283 8.2718,0.501 7.6128,0.501 L3.3878,0.501 C2.7288,0.501 2.2998,1.283 2.5948,1.948"/>
    <path fill="#231F1F" d="M5.5001,23.7937 L3.7071,22.0007 L9.2291,16.4787 L9.9461,19.3477 L5.5001,23.7937 Z M3.0521,1.7447 C2.9541,1.5247 3.0091,1.3097 3.0931,1.1807 C3.1371,1.1127 3.2321,1.0007 3.3881,1.0007 L7.6121,1.0007 C7.7681,1.0007 7.8631,1.1127 7.9071,1.1807 C7.9911,1.3097 8.0461,1.5247 7.9481,1.7447 L7.0621,3.7447 C6.9911,3.9027 6.8631,4.0007 6.7261,4.0007 L6.6891,4.0007 L4.3121,4.0007 L4.2741,4.0007 C4.1371,4.0007 4.0091,3.9027 3.9381,3.7447 L3.0521,1.7447 Z M3.0901,11.2037 L4.6411,5.0007 L6.3591,5.0007 L6.9461,7.3477 L3.0901,11.2037 Z M2.6181,13.0897 L7.2291,8.4797 L7.9461,11.3477 L1.4231,17.8707 L2.6181,13.0897 Z M1.2071,19.5007 L8.2291,12.4797 L8.9461,15.3477 L3.0001,21.2937 L1.2071,19.5007 Z M7.3471,4.8257 C7.6141,4.6797 7.8421,4.4517 7.9761,4.1507 L8.8621,2.1507 C9.0801,1.6607 9.0351,1.0797 8.7461,0.6357 C8.4831,0.2317 8.0701,0.0007 7.6121,0.0007 L3.3881,0.0007 C2.9301,0.0007 2.5171,0.2317 2.2541,0.6357 C1.9651,1.0797 1.9201,1.6607 2.1381,2.1507 L3.0241,4.1507 C3.1581,4.4517 3.3861,4.6797 3.6531,4.8257 L0.0151,19.3797 C0.0111,19.3947 0.0181,19.4077 0.0161,19.4227 C0.0061,19.4797 0.0071,19.5347 0.0181,19.5917 C0.0211,19.6127 0.0231,19.6337 0.0301,19.6537 C0.0541,19.7277 0.0891,19.7967 0.1461,19.8547 L5.1461,24.8547 C5.2441,24.9517 5.3721,25.0007 5.5001,25.0007 C5.6281,25.0007 5.7561,24.9517 5.8541,24.8547 L10.8541,19.8547 C10.9781,19.7307 11.0271,19.5497 10.9851,19.3797 L7.3471,4.8257 Z"/>
    <path fill="#231F1F" d="M10.5851,17.78 C10.5411,17.605 10.4071,17.468 10.2331,17.42 C10.0591,17.368 9.8731,17.421 9.7461,17.548 L5.5001,21.794 L1.2541,17.548 C1.1251,17.421 0.9391,17.368 0.7671,17.42 C0.5931,17.468 0.4591,17.605 0.4151,17.78 L0.0161,19.38 C-0.0269,19.55 0.0221,19.73 0.1471,19.854 L5.1471,24.854 C5.2441,24.952 5.3721,25.001 5.5001,25.001 C5.6281,25.001 5.7561,24.952 5.8541,24.854 L10.8541,19.854 C10.9781,19.73 11.0271,19.55 10.9841,19.38 L10.5851,17.78 Z" opacity=".24"/>
  </g>
</svg>
